<mxfile host="app.diagrams.net" modified="2022-04-14T08:58:43.764Z" agent="5.0 (Windows NT 10.0; Win64; x64) AppleWebKit/537.36 (KHTML, like Gecko) Chrome/100.0.4896.75 Safari/537.36" etag="Mmxczm92UHQ9gjKodza9" version="17.4.4" type="github">
  <diagram id="v67e6E50lX1zCiHbshcD" name="Page-1">
    <mxGraphModel dx="1422" dy="832" grid="1" gridSize="10" guides="1" tooltips="1" connect="1" arrows="1" fold="1" page="1" pageScale="1" pageWidth="827" pageHeight="1169" math="0" shadow="0">
      <root>
        <mxCell id="0" />
        <mxCell id="1" parent="0" />
        <mxCell id="fhll1d0mghXkTDZPCNvp-1" value="Pripeljemo do križišča" style="ellipse;whiteSpace=wrap;html=1;" vertex="1" parent="1">
          <mxGeometry x="354" y="20" width="120" height="80" as="geometry" />
        </mxCell>
        <mxCell id="fhll1d0mghXkTDZPCNvp-7" value="Da" style="text;html=1;strokeColor=none;fillColor=none;align=center;verticalAlign=middle;whiteSpace=wrap;rounded=0;" vertex="1" parent="1">
          <mxGeometry x="279" y="160" width="60" height="30" as="geometry" />
        </mxCell>
        <mxCell id="fhll1d0mghXkTDZPCNvp-8" value="Ne" style="text;html=1;strokeColor=none;fillColor=none;align=center;verticalAlign=middle;whiteSpace=wrap;rounded=0;" vertex="1" parent="1">
          <mxGeometry x="500" y="330" width="60" height="30" as="geometry" />
        </mxCell>
        <mxCell id="fhll1d0mghXkTDZPCNvp-10" value="Ima kakšno vozilo prednost" style="rhombus;whiteSpace=wrap;html=1;" vertex="1" parent="1">
          <mxGeometry x="354" y="310" width="120" height="121.25" as="geometry" />
        </mxCell>
        <mxCell id="fhll1d0mghXkTDZPCNvp-15" value="&lt;span&gt;Ali gori rdeča luč&lt;/span&gt;" style="rhombus;whiteSpace=wrap;html=1;" vertex="1" parent="1">
          <mxGeometry x="359" y="142.5" width="110" height="110" as="geometry" />
        </mxCell>
        <mxCell id="fhll1d0mghXkTDZPCNvp-16" value="" style="endArrow=classic;html=1;rounded=0;exitX=0.5;exitY=1;exitDx=0;exitDy=0;entryX=0.5;entryY=0;entryDx=0;entryDy=0;" edge="1" parent="1" source="fhll1d0mghXkTDZPCNvp-1" target="fhll1d0mghXkTDZPCNvp-15">
          <mxGeometry width="50" height="50" relative="1" as="geometry">
            <mxPoint x="390" y="430" as="sourcePoint" />
            <mxPoint x="440" y="380" as="targetPoint" />
          </mxGeometry>
        </mxCell>
        <mxCell id="fhll1d0mghXkTDZPCNvp-17" value="" style="endArrow=classic;html=1;rounded=0;exitX=0.5;exitY=1;exitDx=0;exitDy=0;entryX=0.5;entryY=0;entryDx=0;entryDy=0;" edge="1" parent="1" source="fhll1d0mghXkTDZPCNvp-15" target="fhll1d0mghXkTDZPCNvp-10">
          <mxGeometry width="50" height="50" relative="1" as="geometry">
            <mxPoint x="390" y="430" as="sourcePoint" />
            <mxPoint x="440" y="380" as="targetPoint" />
          </mxGeometry>
        </mxCell>
        <mxCell id="fhll1d0mghXkTDZPCNvp-18" value="" style="endArrow=classic;html=1;rounded=0;exitX=0;exitY=0.5;exitDx=0;exitDy=0;" edge="1" parent="1" source="fhll1d0mghXkTDZPCNvp-15">
          <mxGeometry width="50" height="50" relative="1" as="geometry">
            <mxPoint x="390" y="430" as="sourcePoint" />
            <mxPoint x="230" y="198" as="targetPoint" />
          </mxGeometry>
        </mxCell>
        <mxCell id="fhll1d0mghXkTDZPCNvp-19" value="" style="endArrow=classic;html=1;rounded=0;exitX=1;exitY=0.5;exitDx=0;exitDy=0;" edge="1" parent="1" source="fhll1d0mghXkTDZPCNvp-10" target="fhll1d0mghXkTDZPCNvp-20">
          <mxGeometry width="50" height="50" relative="1" as="geometry">
            <mxPoint x="480" y="360" as="sourcePoint" />
            <mxPoint x="730" y="198" as="targetPoint" />
          </mxGeometry>
        </mxCell>
        <mxCell id="fhll1d0mghXkTDZPCNvp-20" value="Prevozimo križišče" style="shape=parallelogram;perimeter=parallelogramPerimeter;whiteSpace=wrap;html=1;fixedSize=1;" vertex="1" parent="1">
          <mxGeometry x="590" y="341.87" width="130" height="57.5" as="geometry" />
        </mxCell>
        <mxCell id="fhll1d0mghXkTDZPCNvp-21" value="Ne" style="text;html=1;strokeColor=none;fillColor=none;align=center;verticalAlign=middle;whiteSpace=wrap;rounded=0;" vertex="1" parent="1">
          <mxGeometry x="429" y="258.13" width="60" height="30" as="geometry" />
        </mxCell>
        <mxCell id="fhll1d0mghXkTDZPCNvp-22" value="" style="endArrow=classic;html=1;rounded=0;exitX=0.5;exitY=1;exitDx=0;exitDy=0;entryX=0.5;entryY=0;entryDx=0;entryDy=0;" edge="1" parent="1" source="fhll1d0mghXkTDZPCNvp-10" target="fhll1d0mghXkTDZPCNvp-25">
          <mxGeometry width="50" height="50" relative="1" as="geometry">
            <mxPoint x="390" y="430" as="sourcePoint" />
            <mxPoint x="550" y="325" as="targetPoint" />
          </mxGeometry>
        </mxCell>
        <mxCell id="fhll1d0mghXkTDZPCNvp-24" value="Da" style="text;html=1;strokeColor=none;fillColor=none;align=center;verticalAlign=middle;whiteSpace=wrap;rounded=0;" vertex="1" parent="1">
          <mxGeometry x="430" y="440" width="60" height="30" as="geometry" />
        </mxCell>
        <mxCell id="fhll1d0mghXkTDZPCNvp-25" value="Počakamo vozilo" style="shape=parallelogram;perimeter=parallelogramPerimeter;whiteSpace=wrap;html=1;fixedSize=1;" vertex="1" parent="1">
          <mxGeometry x="354" y="510" width="120" height="60" as="geometry" />
        </mxCell>
        <mxCell id="fhll1d0mghXkTDZPCNvp-28" value="" style="endArrow=classic;html=1;rounded=0;exitX=0.5;exitY=1;exitDx=0;exitDy=0;" edge="1" parent="1" source="fhll1d0mghXkTDZPCNvp-25" target="fhll1d0mghXkTDZPCNvp-29">
          <mxGeometry width="50" height="50" relative="1" as="geometry">
            <mxPoint x="390" y="430" as="sourcePoint" />
            <mxPoint x="550" y="470" as="targetPoint" />
          </mxGeometry>
        </mxCell>
        <mxCell id="fhll1d0mghXkTDZPCNvp-29" value="Ko ni vozil, ki imajo prednost prevozimo križišče" style="shape=parallelogram;perimeter=parallelogramPerimeter;whiteSpace=wrap;html=1;fixedSize=1;" vertex="1" parent="1">
          <mxGeometry x="339" y="650" width="150" height="60" as="geometry" />
        </mxCell>
        <mxCell id="fhll1d0mghXkTDZPCNvp-30" value="Ustavimo" style="shape=parallelogram;perimeter=parallelogramPerimeter;whiteSpace=wrap;html=1;fixedSize=1;" vertex="1" parent="1">
          <mxGeometry x="150" y="167.5" width="120" height="60" as="geometry" />
        </mxCell>
        <mxCell id="fhll1d0mghXkTDZPCNvp-31" value="" style="endArrow=classic;html=1;rounded=0;exitX=0.5;exitY=1;exitDx=0;exitDy=0;" edge="1" parent="1" source="fhll1d0mghXkTDZPCNvp-30" target="fhll1d0mghXkTDZPCNvp-32">
          <mxGeometry width="50" height="50" relative="1" as="geometry">
            <mxPoint x="390" y="410" as="sourcePoint" />
            <mxPoint x="180" y="290" as="targetPoint" />
          </mxGeometry>
        </mxCell>
        <mxCell id="fhll1d0mghXkTDZPCNvp-32" value="Počakamo zeleno luč" style="shape=parallelogram;perimeter=parallelogramPerimeter;whiteSpace=wrap;html=1;fixedSize=1;" vertex="1" parent="1">
          <mxGeometry x="129" y="344.68" width="150" height="51.87" as="geometry" />
        </mxCell>
        <mxCell id="fhll1d0mghXkTDZPCNvp-33" value="" style="endArrow=classic;html=1;rounded=0;exitX=1;exitY=0.5;exitDx=0;exitDy=0;entryX=0;entryY=0.5;entryDx=0;entryDy=0;" edge="1" parent="1" source="fhll1d0mghXkTDZPCNvp-32" target="fhll1d0mghXkTDZPCNvp-10">
          <mxGeometry width="50" height="50" relative="1" as="geometry">
            <mxPoint x="390" y="410" as="sourcePoint" />
            <mxPoint x="174" y="370" as="targetPoint" />
          </mxGeometry>
        </mxCell>
      </root>
    </mxGraphModel>
  </diagram>
</mxfile>
